<svg width="404" height="412" viewBox="0 0 404 412" fill="none" xmlns="http://www.w3.org/2000/svg">
  <path d="M353.009 245.5C352.733 245.495 352.505 245.715 352.5 245.991L352.421 250.491C352.416 250.767 352.636 250.994 352.912 250.999C353.188 251.004 353.416 250.784 353.421 250.508L353.491 246.509L357.491 246.579C357.767 246.584 357.994 246.364 357.999 246.088C358.004 245.812 357.784 245.584 357.508 245.579L353.009 245.5ZM130.233 331.923C147.422 342.77 183.345 362.298 219.619 372.108C237.756 377.012 256.018 379.498 272.086 377.229C288.168 374.959 302.072 367.92 311.417 353.775L310.583 353.224C301.428 367.08 287.811 373.999 271.946 376.239C256.066 378.481 237.952 376.029 219.881 371.142C183.739 361.368 147.911 341.896 130.767 331.077L130.233 331.923ZM311.417 353.775C330.055 325.566 321.025 300.882 305.662 290.091C297.998 284.706 288.736 282.776 280.598 285.669C272.442 288.57 265.539 296.27 262.512 309.892L263.488 310.108C266.461 296.73 273.183 289.368 280.933 286.612C288.701 283.849 297.627 285.668 305.088 290.909C319.975 301.367 328.945 325.433 310.583 353.224L311.417 353.775ZM262.512 309.892C259.473 323.566 263.528 334.672 271.601 343.058C279.655 351.424 291.689 357.068 304.623 359.926C317.56 362.784 331.447 362.865 343.25 360.057C355.04 357.251 364.835 351.538 369.443 342.732L368.557 342.268C364.139 350.712 354.671 356.311 343.018 359.084C331.379 361.854 317.645 361.779 304.838 358.949C292.028 356.119 280.197 350.545 272.322 342.364C264.465 334.203 260.527 323.434 263.488 310.108L262.512 309.892ZM369.443 342.732C378.548 325.332 378.027 304.693 373.505 286.629C368.984 268.57 360.437 252.983 353.36 245.653L352.64 246.347C359.563 253.517 368.043 268.93 372.535 286.871C377.025 304.807 377.505 325.168 368.557 342.268L369.443 342.732Z" fill="#D8DDF0" />
  <path d="M341.977 217.08L285.617 247.056L329.402 278.006L341.977 217.08Z" stroke="#D8DDF0" />
  <path d="M116.75 46.4806L56.1272 63.4052L95.4553 91.2048L116.75 46.4806Z" stroke="#D8DDF0" />
  <path d="M235 100H222V6H235" stroke="#0D0F44" />
  <path d="M342 100H355V6H342" stroke="#0D0F44" />
  <rect x="234" y="19" width="110" height="68" fill="#FFD550" />
  <path d="M244 68.5C250.5 67.6667 268.5 63.5 275 51.5C283.814 35.2272 295 36.5 300.5 41.5C304 44.8333 312.997 51.3639 317 51C322.5 50.5 327.5 36.5 333 36.5" stroke="#FF4E33" />
  <circle cx="291.5" cy="37.5" r="4.5" fill="#FF4E33" />
  <path d="M289 28L290.5 31.5" stroke="#FF4E33" />
  <path d="M298.5 29.5L295.5 32.5" stroke="#FF4E33" />
  <rect x="332" y="113" width="12" height="12" fill="#CED6F5" />
  <rect x="234" y="118" width="92" height="2" fill="#CED6F5" />
  <rect x="332" y="137" width="12" height="12" fill="#CED6F5" />
  <rect x="234" y="142" width="92" height="2" fill="#CED6F5" />
  <rect x="332" y="161" width="12" height="12" fill="#CED6F5" />
  <rect x="234" y="166" width="92" height="2" fill="#CED6F5" />
  <path d="M264.52 85.5V100.5L276.02 73.5L274.52 74C265.52 77.5 264.186 83.1667 264.52 85.5Z" fill="#F3ABAA" />
  <path d="M274.52 74.5004C271.72 79.7004 266.52 86.3338 264.52 89.0005V102L282.52 123C284.52 121 287.02 113.5 287.02 111.5C287.02 110 287.853 105.5 288.52 103.5C289.52 100.5 291.52 98.5005 292.52 97.0005C293.52 95.5005 292.02 92.5005 292.02 92.5005L290.02 88.0005L285.02 82.5005C284.02 81.5005 280.52 81.0005 279.52 80.0005C278.52 79.0005 285.52 67.0004 283.52 65.5004C281.52 64.0004 278.02 68.0004 274.52 74.5004Z" fill="#F3ABAA" />
  <path d="M284.5 82L282 85" stroke="#FF4E33" />
  <path d="M288.5 86L286 89" stroke="#FF4E33" />
  <path d="M291 91C290.6 91 289.833 92 289 93" stroke="#FF4E33" />
  <path fill-rule="evenodd" clip-rule="evenodd" d="M273.798 75.8457C273.527 76.353 273.247 76.8785 272.96 77.4161C270.743 81.5697 268.143 86.4421 266.39 89.1944C263.419 92.8035 260.696 95.7649 259.52 96C257.02 96.4999 255.52 94 257.021 92C258.146 90.5 271.02 77.5001 273.52 76.0001C273.617 75.942 273.71 75.8906 273.798 75.8457Z" fill="#0D0F44" />
  <path d="M201.5 81C199.667 70 194.5 67.6666 191.5 65.4999C192.5 60.9998 191.499 57.5344 190.5 57.4999C176 56.9999 164.5 69.5 163 74.9999C162.253 77.7379 162.632 81.6088 163 83.9999C164 90.5 170 100 181 100.5C190.769 100.944 199.54 98.8362 201.5 90.9998C202 89 202 84 201.5 81Z" fill="#F3ABAA" />
  <path d="M195.5 71.5C196.5 72 200.1 75.4 200.5 77" stroke="#FF4E33" />
  <path fill-rule="evenodd" clip-rule="evenodd" d="M191.5 65.5C187.5 69 183.442 75.6519 184 78.9998C184.066 79.393 183.043 79.2832 181.541 79.1217C178.131 78.7554 172.251 78.1235 171 82.4998C169 89.4998 173.225 95.7586 184.5 91.9998C185.966 91.5111 183.929 97.0735 178.856 100.282C169.218 98.7401 163.933 90.0643 163 83.9999C162.632 81.6088 162.253 77.7379 163 74.9999C164.5 69.5 176 56.9999 190.5 57.4999C191.499 57.5344 192.5 60.9998 191.5 65.4999C191.5 65.4999 191.5 65.4999 191.5 65.5Z" fill="#0D0F44" />
  <path d="M174.5 86.5006C175.667 85.0006 178.9 82.6006 182.5 85.0006" stroke="#FF4E33" stroke-width="1.5" />
  <circle cx="191.5" cy="74.5" r="1.5" fill="#232426" />
  <path d="M68.9998 386C68.4996 384.5 77.8331 364.5 81.4998 355.5C94.6665 358.5 120.9 365.3 120.5 368.5C120 372.5 122.578 387.156 123.5 389C124.5 391 132.5 399.5 133.5 402.5C134.5 405.5 134.5 409.5 133.5 410.5C132.5 411.5 69.5 387.5 68.9998 386Z" fill="#4C70FF" />
  <path d="M115 384.5C115.4 384.5 119.5 381.833 121.5 380.5" stroke="white" />
  <path d="M116 390C116.4 390 120.5 387.333 122.5 386" stroke="white" />
  <path d="M204 405.925V376.925C218.5 373.592 247.5 367.725 247.5 370.925C247.5 374.925 252.861 386.111 257.5 389.425C261 391.925 269.5 396.85 272 400.425C273.834 403.047 273.515 405.32 273.215 406.345C273.109 406.71 272.759 406.921 272.379 406.916L204 405.925Z" fill="#4C70FF" />
  <path d="M248.5 388.925L252 383.425" stroke="white" />
  <path d="M252 393.425L255.5 387.925" stroke="white" />
  <path d="M128.5 205.5C123.3 206.7 115.667 199.667 112.5 196L124.5 184.5L135 191C135 195.333 133.7 204.3 128.5 205.5Z" fill="#F3ABAA" />
  <path d="M207 206L131 194C126.167 207.5 117 238.5 115.5 254C113.995 269.548 90.1667 327.833 78 355C88.5 358.5 120.5 371.5 127.824 375C140.324 356.5 166.5 268.5 167.5 250.5C182 262.5 196.833 340.667 202 380C213 380 249.5 374 256 370.5C248.4 276.9 220.167 221.833 207 206Z" fill="#0D0F44" />
  <path d="M150.5 234.5C155.5 235.167 165.4 238.2 165 245" stroke="white" />
  <path d="M197.5 207C209.333 226.333 235.6 286.2 246 371" stroke="white" />
  <path d="M206.5 207V224" stroke="white" />
  <path d="M167.423 102.093C168.423 102.093 187.09 104.26 196.423 105.093V112.593C206.256 115.427 227.032 121.105 231.423 121.593C235.923 122.093 244.176 122.967 246.923 121.593C249.453 120.328 260.923 112.094 264.423 100.093C264.86 98.5933 285.923 115.594 286.923 120.093C284.423 133.094 270.423 161.094 240.923 166.594C235.559 167.594 221.923 167.094 214.423 166.093C214.59 179.093 214.323 205.593 211.923 207.593C208.923 210.093 134.423 200.594 127.923 193.094C127.638 192.765 127.679 192.018 127.979 190.914C123.839 193.888 111.732 197.455 109.923 197.093C107.423 196.593 96.0972 175.999 94.4228 162.593C93.9115 158.5 93.6932 150.623 94.3484 144.906C95.9995 130.5 109.923 110 135.923 106.593C161.022 103.305 164.423 107.093 167.423 107.593L167.423 102.093Z" fill="#FF4E33" />
  <path d="M197 160.5C200 160.334 206.3 160.9 207.5 164.5" stroke="white" />
  <path fill-rule="evenodd" clip-rule="evenodd" d="M148.239 125C149.319 125.623 149.923 126.191 149.923 126.593C149.923 142.748 140.066 163.895 133.491 178.002C130.785 183.805 128.636 188.417 127.956 191H112C107.582 191 104 187.418 104 183V133C104 128.582 107.582 125 112 125H148.239Z" fill="#0D0F44" />
  <path fill-rule="evenodd" clip-rule="evenodd" d="M149.854 129C148.966 144.801 139.744 164.585 133.491 178.002C131.863 181.493 130.437 184.553 129.41 187H114V129H149.854Z" fill="#CCD6FF" />
  <path d="M101 175C101 172.791 102.791 171 105 171V180C102.791 180 101 178.209 101 176V175Z" fill="#0D0F44" />
  <path d="M102 175.5C95 175.5 88.5 183 88.5 188C88.5 195.2 88.5 248 88.5 273.5C88 280 82.5 287.5 75 287.5C68.5 287.5 61.5 287.5 60 287.5C55 287.5 48.5 293.5 48.5 300.5C48.5 310.1 48.5 362.5 48.5 387.5" stroke="#0D0F44" stroke-width="2" />
  <path d="M40 393C40 388.582 43.5817 385 48 385C52.4183 385 56 388.582 56 393V401H40V393Z" fill="#0D0F44" />
  <path d="M140 5C124.316 8.11111 93.1618 23.6667 94.0173 61" stroke="#D8DDF0" />
  <circle opacity="0.6" cx="147" cy="39" r="10" fill="#D8DDF0" />
</svg>
